<svg width="36" height="36" viewBox="0 0 36 36" fill="none" xmlns="http://www.w3.org/2000/svg">
<path d="M33.2691 15.5728L33.1102 14.8985H18.4542V21.1015H27.2109C26.3018 25.4187 22.083 27.6912 18.637 27.6912C16.1297 27.6912 13.4866 26.6365 11.7373 24.9412C10.8143 24.0325 10.0796 22.9507 9.57529 21.7577C9.07097 20.5647 8.8069 19.2839 8.7982 17.9887C8.7982 15.3759 9.97242 12.7624 11.681 11.0433C13.3896 9.32414 15.9701 8.36227 18.5358 8.36227C21.4741 8.36227 23.58 9.9225 24.3675 10.6341L28.7754 6.24937C27.4823 5.11312 23.9302 2.25 18.3938 2.25C14.1223 2.25 10.0266 3.88617 7.03266 6.87023C4.07812 9.80859 2.54883 14.0576 2.54883 18C2.54883 21.9424 3.99586 25.9791 6.85898 28.9406C9.91828 32.0991 14.2509 33.75 18.7123 33.75C22.7714 33.75 26.6189 32.1595 29.3611 29.2739C32.0569 26.4333 33.4512 22.5028 33.4512 18.3825C33.4512 16.6479 33.2768 15.6178 33.2691 15.5728Z" fill="white"/>
</svg>
